HIERARCHY
ROOT hips
{
	OFFSET 0.000000 104.274902 0.000000
	CHANNELS 6 Xposition Yposition Zposition Xrotation Yrotation Zrotation
	JOINT spine
	{
		OFFSET 0.000000 10.181549 0.131524
		CHANNELS 6 Xposition Yposition Zposition Xrotation Yrotation Zrotation
		JOINT chest
		{
			OFFSET 0.000000 9.893990 -1.470706
			CHANNELS 3 Xrotation Yrotation Zrotation
			JOINT upperChest
			{
				OFFSET 0.000000 9.220787 -1.370637
				CHANNELS 3 Xrotation Yrotation Zrotation
				JOINT neck
				{
					OFFSET 0.000000 16.740372 -2.049022
					CHANNELS 6 Xposition Yposition Zposition Xrotation Yrotation Zrotation
					JOINT head
					{
						OFFSET 0.000000 9.617859 1.684976
						CHANNELS 6 Xposition Yposition Zposition Xrotation Yrotation Zrotation
						JOINT headEnd
						{
							OFFSET 0.000000 22.037384 7.501072
							CHANNELS 6 Xposition Yposition Zposition Xrotation Yrotation Zrotation
							End Site
							{
								OFFSET 0.000000 23.106567 -2.828246
							}
						}
					}
				}
				JOINT rightShoulder
				{
					OFFSET -4.570000 11.014877 -2.160840
					CHANNELS 6 Xposition Yposition Zposition Xrotation Yrotation Zrotation
					JOINT rightUpperArm
					{
						OFFSET -10.592867 -0.524796 -2.232105
						CHANNELS 3 Xrotation Yrotation Zrotation
						JOINT rightLowerArm
						{
							OFFSET -27.841497 0.000000 -0.000002
							CHANNELS 3 Xrotation Yrotation Zrotation
							JOINT rightHand
							{
								OFFSET -28.328812 0.000000 -0.000001
								CHANNELS 3 Xrotation Yrotation Zrotation
								JOINT rightThumbProximal
								{
									OFFSET -2.464798 -1.573990 2.681911
									CHANNELS 6 Xposition Yposition Zposition Xrotation Yrotation Zrotation
									JOINT rightThumbIntermediate
									{
										OFFSET -3.244781 -1.873383 1.873376
										CHANNELS 3 Xrotation Yrotation Zrotation
										JOINT rightThumbDistal
										{
											OFFSET -2.646263 -1.527817 1.527818
											CHANNELS 6 Xposition Yposition Zposition Xrotation Yrotation Zrotation
											JOINT rightHandThumb4
											{
												OFFSET -1.994591 -1.151581 1.151575
												CHANNELS 6 Xposition Yposition Zposition Xrotation Yrotation Zrotation
												End Site
												{
													OFFSET -1.860176 -1.142715 1.365483
												}
											}
										}
									}
								}
								JOINT rightIndexProximal
								{
									OFFSET -9.108299 -0.517883 2.259803
									CHANNELS 6 Xposition Yposition Zposition Xrotation Yrotation Zrotation
									JOINT rightIndexIntermediate
									{
										OFFSET -3.699997 0.000000 0.000000
										CHANNELS 3 Xrotation Yrotation Zrotation
										JOINT rightIndexDistal
										{
											OFFSET -2.850006 0.000000 0.000000
											CHANNELS 3 Xrotation Yrotation Zrotation
											JOINT rightHandIndex4
											{
												OFFSET -2.772194 0.000000 0.000000
												CHANNELS 3 Xrotation Yrotation Zrotation
												End Site
												{
													OFFSET -2.772202 0.000000 -0.000484
												}
											}
										}
									}
								}
								JOINT rightMiddleProximal
								{
									OFFSET -9.532501 0.000000 -0.000000
									CHANNELS 6 Xposition Yposition Zposition Xrotation Yrotation Zrotation
									JOINT rightMiddleIntermediate
									{
										OFFSET -3.699997 0.000000 0.000000
										CHANNELS 3 Xrotation Yrotation Zrotation
										JOINT rightMiddleDistal
										{
											OFFSET -2.949997 0.000000 0.000000
											CHANNELS 3 Xrotation Yrotation Zrotation
											JOINT rightHandMiddle4
											{
												OFFSET -2.946594 0.000000 0.000000
												CHANNELS 3 Xrotation Yrotation Zrotation
												End Site
												{
													OFFSET -2.946602 0.000000 -0.000982
												}
											}
										}
									}
								}
								JOINT rightRingProximal
								{
									OFFSET -9.103600 -0.043106 -1.865100
									CHANNELS 6 Xposition Yposition Zposition Xrotation Yrotation Zrotation
									JOINT rightRingIntermediate
									{
										OFFSET -3.379303 0.000000 0.000000
										CHANNELS 3 Xrotation Yrotation Zrotation
										JOINT rightRingDistal
										{
											OFFSET -2.889694 0.000000 0.000000
											CHANNELS 3 Xrotation Yrotation Zrotation
											JOINT rightHandRing4
											{
												OFFSET -2.638802 0.000000 0.000000
												CHANNELS 3 Xrotation Yrotation Zrotation
												End Site
												{
													OFFSET -2.638802 0.000000 0.004218
												}
											}
										}
									}
								}
								JOINT rightLittleProximal
								{
									OFFSET -8.076698 -0.486725 -3.806299
									CHANNELS 6 Xposition Yposition Zposition Xrotation Yrotation Zrotation
									JOINT rightLittleIntermediate
									{
										OFFSET -3.600006 0.000000 0.000000
										CHANNELS 3 Xrotation Yrotation Zrotation
										JOINT rightLittleDistal
										{
											OFFSET -2.099998 0.000000 0.000000
											CHANNELS 3 Xrotation Yrotation Zrotation
											JOINT rightHandPinky4
											{
												OFFSET -2.115791 0.000000 0.000000
												CHANNELS 3 Xrotation Yrotation Zrotation
												End Site
												{
													OFFSET -2.115799 0.000000 0.000174
												}
											}
										}
									}
								}
							}
						}
					}
				}
				JOINT leftShoulder
				{
					OFFSET 4.570400 11.014679 -2.160816
					CHANNELS 6 Xposition Yposition Zposition Xrotation Yrotation Zrotation
					JOINT leftUpperArm
					{
						OFFSET 10.592373 -0.524597 -2.232116
						CHANNELS 3 Xrotation Yrotation Zrotation
						JOINT leftLowerArm
						{
							OFFSET 27.841488 0.000000 0.000001
							CHANNELS 3 Xrotation Yrotation Zrotation
							JOINT leftHand
							{
								OFFSET 28.328808 0.000000 -0.000000
								CHANNELS 3 Xrotation Yrotation Zrotation
								JOINT leftThumbProximal
								{
									OFFSET 2.466103 -1.576202 2.681698
									CHANNELS 6 Xposition Yposition Zposition Xrotation Yrotation Zrotation
									JOINT leftThumbIntermediate
									{
										OFFSET 3.243317 -1.872528 1.872530
										CHANNELS 3 Xrotation Yrotation Zrotation
										JOINT leftThumbDistal
										{
											OFFSET 2.647881 -1.528763 1.528754
											CHANNELS 6 Xposition Yposition Zposition Xrotation Yrotation Zrotation
											JOINT leftHandThumb4
											{
												OFFSET 1.998924 -1.154083 1.154080
												CHANNELS 6 Xposition Yposition Zposition Xrotation Yrotation Zrotation
												End Site
												{
													OFFSET 1.884041 -1.149155 1.337651
												}
											}
										}
									}
								}
								JOINT leftIndexProximal
								{
									OFFSET 9.109299 -0.518005 2.259900
									CHANNELS 6 Xposition Yposition Zposition Xrotation Yrotation Zrotation
									JOINT leftIndexIntermediate
									{
										OFFSET 3.699997 0.000000 0.000000
										CHANNELS 3 Xrotation Yrotation Zrotation
										JOINT leftIndexDistal
										{
											OFFSET 2.850006 0.000000 0.000000
											CHANNELS 3 Xrotation Yrotation Zrotation
											JOINT leftHandIndex4
											{
												OFFSET 2.774895 0.000000 0.000000
												CHANNELS 3 Xrotation Yrotation Zrotation
												End Site
												{
													OFFSET 2.774902 0.000000 -0.000072
												}
											}
										}
									}
								}
								JOINT leftMiddleProximal
								{
									OFFSET 9.533401 0.000000 0.000000
									CHANNELS 6 Xposition Yposition Zposition Xrotation Yrotation Zrotation
									JOINT leftMiddleIntermediate
									{
										OFFSET 3.699997 0.000000 0.000000
										CHANNELS 3 Xrotation Yrotation Zrotation
										JOINT leftMiddleDistal
										{
											OFFSET 2.949997 0.000000 0.000000
											CHANNELS 3 Xrotation Yrotation Zrotation
											JOINT leftHandMiddle4
											{
												OFFSET 2.952896 0.000000 0.000000
												CHANNELS 3 Xrotation Yrotation Zrotation
												End Site
												{
													OFFSET 2.952904 0.000000 0.000165
												}
											}
										}
									}
								}
								JOINT leftRingProximal
								{
									OFFSET 9.104500 -0.042999 -1.865101
									CHANNELS 6 Xposition Yposition Zposition Xrotation Yrotation Zrotation
									JOINT leftRingIntermediate
									{
										OFFSET 3.149994 0.000000 0.000000
										CHANNELS 3 Xrotation Yrotation Zrotation
										JOINT leftRingDistal
										{
											OFFSET 2.950005 0.000000 0.000000
											CHANNELS 3 Xrotation Yrotation Zrotation
											JOINT leftHandRing4
											{
												OFFSET 2.644302 0.000000 0.000000
												CHANNELS 3 Xrotation Yrotation Zrotation
												End Site
												{
													OFFSET 2.644302 0.000000 0.000083
												}
											}
										}
									}
								}
								JOINT leftLittleProximal
								{
									OFFSET 8.077805 -0.486893 -3.806302
									CHANNELS 6 Xposition Yposition Zposition Xrotation Yrotation Zrotation
									JOINT leftLittleIntermediate
									{
										OFFSET 3.600006 0.000000 0.000000
										CHANNELS 3 Xrotation Yrotation Zrotation
										JOINT leftLittleDistal
										{
											OFFSET 2.099998 0.000000 0.000000
											CHANNELS 3 Xrotation Yrotation Zrotation
											JOINT leftHandPinky4
											{
												OFFSET 2.125496 0.000000 0.000000
												CHANNELS 3 Xrotation Yrotation Zrotation
												End Site
												{
													OFFSET 2.125504 0.000000 -0.001254
												}
											}
										}
									}
								}
							}
						}
					}
				}
			}
		}
	}
	JOINT rightUpperLeg
	{
		OFFSET -8.207800 -6.751701 -1.599544
		CHANNELS 6 Xposition Yposition Zposition Xrotation Yrotation Zrotation
		JOINT rightLowerLeg
		{
			OFFSET 0.000004 -44.370152 0.345934
			CHANNELS 3 Xrotation Yrotation Zrotation
			JOINT rightFoot
			{
				OFFSET 0.000004 -44.423664 -3.043535
				CHANNELS 3 Xrotation Yrotation Zrotation
				JOINT rightToes
				{
					OFFSET 0.000001 -8.728691 10.710592
					CHANNELS 3 Xrotation Yrotation Zrotation
					JOINT rightToesEnd
					{
						OFFSET 0.000000 -0.000665 9.278101
						CHANNELS 3 Xrotation Yrotation Zrotation
						End Site
						{
							OFFSET 0.000000 -0.000665 9.278103
						}
					}
				}
			}
		}
	}
	JOINT leftUpperLeg
	{
		OFFSET 8.207800 -6.751701 -1.599544
		CHANNELS 6 Xposition Yposition Zposition Xrotation Yrotation Zrotation
		JOINT leftLowerLeg
		{
			OFFSET 0.000004 -44.370037 0.346940
			CHANNELS 3 Xrotation Yrotation Zrotation
			JOINT leftFoot
			{
				OFFSET 0.000004 -44.423611 -3.044388
				CHANNELS 3 Xrotation Yrotation Zrotation
				JOINT leftToes
				{
					OFFSET 0.000001 -8.728690 10.710592
					CHANNELS 3 Xrotation Yrotation Zrotation
					JOINT leftToesEnd
					{
						OFFSET 0.000000 -0.000680 9.278101
						CHANNELS 3 Xrotation Yrotation Zrotation
						End Site
						{
							OFFSET 0.000000 -0.000680 9.278101
						}
					}
				}
			}
		}
	}
}
MOTION
Frames: 4
Frame Time: 0.033333
-1.920524 94.929024 137.664352 -9.124508 -2.479152 -7.978376 -0.000001 10.181547 0.131531 0.166523 -10.623943 1.431767 10.124348 -1.081690 2.178990 10.171436 -1.144687 2.009149 0.000008 16.740385 -2.049005 0.108603 1.933028 1.108550 0.000001 9.617847 1.684988 -25.438126 13.629846 -4.945643 -0.000002 22.037384 7.501085 0.000001 -0.000000 -0.000000 -4.569996 11.014868 -2.160829 0.821521 5.625262 0.432463 47.401554 10.204233 63.692928 0.000898 93.671181 -0.000857 -14.319066 15.828939 -19.049423 -2.464790 -1.574003 2.681918 -4.420172 -18.673975 -15.390335 4.637193 -8.634132 -0.225380 -2.646274 -1.527807 1.527810 -1.273762 0.137307 -2.094880 -1.994594 -1.151582 1.151585 0.000002 -0.000002 0.000001 -9.108287 -0.517874 2.259819 0.041909 -0.763837 6.280709 0.444678 2.451081 0.000006 0.444691 2.451066 -20.563555 -0.000000 0.000005 0.000002 -9.532500 -0.000007 0.000001 0.015053 -0.458322 3.763590 0.021211 -0.543697 4.465998 0.022468 -0.559688 4.597684 0.000000 -0.000001 -0.000000 -9.103590 -0.043103 -1.865100 0.004628 -0.254583 2.089446 0.005479 -0.276619 2.270410 0.005652 -0.280743 2.304337 -0.000001 0.000005 0.000001 -8.076696 -0.486734 -3.806289 0.000902 -0.112517 0.923275 0.176254 1.558734 -0.000030 0.176256 1.558723 -12.902259 -0.000000 -0.000001 0.000001 4.570405 11.014689 -2.160804 0.585819 -3.486641 9.513258 -41.327074 -31.114432 -40.893685 0.000016 -102.930848 0.000018 23.884623 -7.797335 7.992127 2.466086 -1.576220 2.681742 -3.383776 21.303420 12.272317 3.939049 7.948720 0.746805 2.647903 -1.528741 1.528748 -0.579469 1.575018 2.538709 1.998909 -1.154096 1.154078 0.000001 0.000003 0.000003 9.109304 -0.518015 2.259944 0.144355 1.405454 -11.730132 0.190781 1.612865 -13.492400 0.190780 1.612856 -13.492402 -0.000000 -0.000001 0.000000 9.533415 0.000006 0.000032 0.225757 1.752201 -14.684000 0.296731 2.003461 -16.849713 0.292152 1.988239 -16.717914 -0.000000 -0.000001 0.000001 9.104495 -0.043013 -1.865065 0.373793 2.242037 -18.930035 0.449022 2.450243 -20.767405 0.440375 2.427328 -20.564264 0.000001 -0.000000 -0.000001 8.077799 -0.486889 -3.806277 2.140400 6.448108 -22.746617 0.575025 -1.313295 -23.886903 0.569155 2.745912 -23.417266 0.000000 -0.000002 0.000002 -8.207798 -6.751717 -1.599527 -19.713019 -1.894178 10.791799 44.723003 -4.406187 1.869914 -15.939973 0.521030 -3.470390 -0.001559 0.000001 -0.000000 -0.000000 -0.000000 -0.000000 8.207800 -6.751715 -1.599526 -23.781464 1.825155 5.418106 90.447250 5.437321 4.228828 -14.559240 1.593151 -5.874932 0.386708 -0.000001 0.000003 -0.000004 -0.000000 0.000001 
-1.625687 95.743858 138.781525 -9.041319 -3.358405 -6.018261 0.000001 10.181543 0.131548 -0.327734 -9.657117 1.169951 10.218573 -1.109021 0.457163 10.235636 -1.168724 0.302308 0.000004 16.740364 -2.049013 -0.358326 1.827132 1.228226 -0.000001 9.617844 1.684995 -26.235960 12.468284 -3.389789 -0.000002 22.037369 7.501074 0.000001 -0.000000 0.000000 -4.569993 11.014897 -2.160836 0.826649 5.516058 0.301576 44.869521 11.955296 66.614514 -0.003659 89.389978 0.003955 -14.937347 18.022390 -16.720779 -2.464797 -1.573982 2.681911 -4.420172 -18.673973 -15.390335 4.637195 -8.634132 -0.225379 -2.646251 -1.527805 1.527805 -1.273760 0.137304 -2.094880 -1.994624 -1.151587 1.151570 0.000004 -0.000006 0.000001 -9.108305 -0.517878 2.259805 0.025968 -0.601667 4.943345 0.453210 2.473604 -0.000022 0.453182 2.473603 -20.761496 0.000000 0.000001 -0.000001 -9.532512 0.000022 0.000007 0.009259 -0.359598 2.952092 0.016669 -0.482178 3.959788 0.018300 -0.505125 4.148740 0.000000 0.000004 0.000000 -9.103602 -0.043094 -1.865091 0.002802 -0.197599 1.621712 0.004381 -0.247401 2.030505 0.004719 -0.256724 2.107146 -0.000000 0.000003 0.000001 -8.076699 -0.486723 -3.806283 0.000501 -0.083602 0.686100 0.163894 1.503742 -0.000011 0.163908 1.503769 -12.439678 -0.000001 0.000001 0.000000 4.570403 11.014719 -2.160812 0.616331 -3.673190 9.817917 -44.231137 -34.171436 -41.711685 0.000057 -102.333692 0.000066 21.063036 -7.617161 12.189531 2.466098 -1.576207 2.681694 -3.383772 21.303420 12.272318 3.939048 7.948719 0.746805 2.647907 -1.528745 1.528745 -0.579468 1.575018 2.538713 1.998920 -1.154097 1.154085 -0.000001 0.000000 0.000005 9.109299 -0.518019 2.259891 0.091454 1.120940 -9.330774 0.144560 1.406387 -11.737905 0.144553 1.406386 -11.737907 0.000000 -0.000000 0.000000 9.533410 0.000003 -0.000022 0.169118 1.519772 -12.699933 0.250596 1.844366 -15.475641 0.248593 1.837052 -15.412663 0.000001 -0.000001 -0.000000 9.104502 -0.042998 -1.865117 0.314822 2.062196 -17.359650 0.415292 2.359467 -19.963629 0.409878 2.344520 -19.831758 0.000000 -0.000002 0.000002 8.077806 -0.486906 -3.806329 1.996227 6.339785 -21.452002 0.561270 -1.344560 -23.604268 0.555646 2.714553 -23.133653 -0.000001 0.000002 -0.000002 -8.207795 -6.751725 -1.599525 -18.369131 -1.764090 9.717020 43.381042 -3.841412 -0.696769 -16.035628 0.303027 -2.292221 -0.001203 -0.000001 -0.000000 -0.000000 -0.000000 0.000000 8.207803 -6.751729 -1.599522 -25.342242 2.258738 2.409521 89.276679 2.357512 4.321043 -16.555897 7.231877 -2.501257 -0.186102 -0.000001 0.000001 -0.000004 -0.000000 -0.000000 
-1.161394 96.731659 139.857483 -8.682215 -4.225441 -3.403063 -0.000000 10.181550 0.131525 -0.397332 -8.991412 -0.399714 9.636219 -1.154011 -0.380684 9.645098 -1.187453 -0.521745 -0.000002 16.740343 -2.049009 -0.521827 1.863684 0.805810 0.000004 9.617850 1.685011 -26.608143 11.944674 -2.664481 -0.000004 22.037399 7.501073 -0.000001 0.000000 0.000001 -4.570007 11.014872 -2.160843 0.856118 5.472012 -0.489557 42.058334 11.983143 71.024938 -0.000416 84.303550 0.000460 -15.167419 20.461172 -12.363077 -2.464790 -1.573984 2.681918 -4.420170 -18.673971 -15.390335 4.637199 -8.634142 -0.225381 -2.646262 -1.527839 1.527819 -1.273757 0.137304 -2.094882 -1.994590 -1.151586 1.151593 0.000001 -0.000001 -0.000000 -9.108298 -0.517880 2.259809 0.016761 -0.483538 3.971037 0.492922 2.575867 -0.000013 0.492931 2.575854 -21.663246 0.000002 -0.000000 0.000001 -9.532480 0.000015 0.000007 0.004896 -0.261245 2.144284 0.009674 -0.367519 3.017181 0.010763 -0.387432 3.180842 0.000000 0.000004 0.000000 -9.103586 -0.043105 -1.865098 0.000666 -0.096463 0.791621 0.002177 -0.174246 1.429927 0.002559 -0.188809 1.549596 0.000000 0.000001 0.000000 -8.076696 -0.486724 -3.806291 0.000134 0.043575 -0.357530 0.158268 1.477991 -0.000021 0.158264 1.477993 -12.223052 -0.000000 -0.000000 0.000001 4.570392 11.014667 -2.160815 0.622379 -3.724235 9.181622 -46.054432 -36.776860 -42.488585 -0.000031 -102.274139 -0.000032 17.655004 -7.877647 14.991396 2.466092 -1.576221 2.681715 -3.383776 21.303420 12.272311 3.939046 7.948712 0.746804 2.647893 -1.528754 1.528749 -0.579470 1.575019 2.538710 1.998902 -1.154109 1.154076 0.000001 0.000005 -0.000000 9.109287 -0.518031 2.259897 0.051078 0.838935 -6.969225 0.091625 1.121940 -9.339301 0.091639 1.121964 -9.339300 0.000001 0.000000 0.000002 9.533398 0.000007 0.000018 0.115465 1.258260 -10.486367 0.187107 1.597525 -13.361769 0.186547 1.595131 -13.341193 -0.000001 0.000000 0.000000 9.104499 -0.042997 -1.865092 0.242663 1.815451 -15.226944 0.348378 2.166549 -18.269081 0.345709 2.158458 -18.198368 0.000001 0.000000 -0.000000 8.077800 -0.486909 -3.806287 1.761204 6.151813 -19.291958 0.501053 -1.486631 -22.327228 0.496558 2.571993 -21.852396 -0.000002 0.000003 -0.000000 -8.207800 -6.751705 -1.599544 -17.128036 -1.819413 7.431125 41.708048 -2.584676 -2.823184 -15.917355 0.112308 -1.330948 -0.000960 -0.000003 -0.000001 -0.000000 0.000000 0.000000 8.207802 -6.751707 -1.599558 -24.969881 3.179307 -1.372786 82.949929 0.513583 5.018909 -19.183879 11.003897 0.373133 -0.290167 -0.000003 -0.000000 -0.000001 -0.000000 0.000001 
-0.618844 97.711990 140.876419 -8.191298 -5.012983 -0.808097 -0.000001 10.181549 0.131503 -0.265738 -8.774958 -2.455768 8.846770 -1.208167 -0.604504 8.859589 -1.215371 -0.735638 -0.000001 16.740387 -2.049022 -0.611256 2.037260 0.105904 -0.000002 9.617851 1.684976 -26.777354 12.186535 -2.596973 -0.000001 22.037369 7.501071 0.000001 -0.000000 -0.000000 -4.569999 11.014896 -2.160840 0.914634 5.688200 -1.245407 39.934613 9.704528 76.272873 -0.000259 80.202936 0.000280 -14.826358 22.547756 -6.893264 -2.464786 -1.574002 2.681906 -4.420172 -18.673975 -15.390339 4.637195 -8.634132 -0.225379 -2.646270 -1.527810 1.527804 -1.273760 0.137307 -2.094879 -1.994582 -1.151570 1.151571 -0.000002 0.000001 0.000003 -9.108292 -0.517884 2.259795 0.019715 -0.524386 4.307028 0.518548 2.639389 0.000045 0.518560 2.639390 -22.226486 -0.000001 -0.000001 0.000000 -9.532487 -0.000006 -0.000004 0.004121 -0.240105 1.970612 0.004092 -0.239286 1.963845 0.004102 -0.239131 1.962600 0.000001 -0.000000 -0.000000 -9.103603 -0.043116 -1.865098 0.000001 -0.007266 0.059636 0.000104 -0.038162 0.313185 0.000145 -0.043971 0.360743 0.000000 -0.000001 -0.000000 -8.076694 -0.486740 -3.806299 0.003479 0.220326 -1.808181 0.174608 1.551531 0.000053 0.174629 1.551549 -12.841739 0.000001 -0.000003 0.000000 4.570401 11.014745 -2.160829 0.548184 -3.282647 8.250378 -47.519224 -39.000933 -43.193420 0.000004 -102.183933 0.000006 15.801416 -8.554047 16.829967 2.466100 -1.576206 2.681698 -3.383773 21.303418 12.272312 3.939048 7.948716 0.746800 2.647889 -1.528745 1.528753 -0.579469 1.575022 2.538711 1.998924 -1.154067 1.154086 0.000003 -0.000002 0.000003 9.109293 -0.518018 2.259903 0.030922 0.653330 -5.422016 0.051170 0.839704 -6.975726 0.051171 0.839696 -6.975707 -0.000000 0.000000 0.000000 9.533410 0.000000 -0.000009 0.079830 1.047672 -8.715854 0.127972 1.324151 -11.042400 0.127447 1.321318 -11.018535 0.000002 0.000000 -0.000001 9.104493 -0.043013 -1.865098 0.180136 1.567831 -13.108758 0.268131 1.906516 -16.011331 0.266671 1.901428 -15.967290 -0.000000 -0.000000 -0.000000 8.077803 -0.486885 -3.806295 1.497993 5.923052 -16.789804 0.407473 -1.727068 -20.191847 0.404934 2.330777 -19.710486 -0.000001 -0.000000 -0.000002 -8.207798 -6.751714 -1.599552 -16.099616 -1.641606 4.565339 39.995890 -1.169034 -3.798808 -15.699137 -0.010813 -0.776082 -0.000788 -0.000000 0.000001 -0.000000 0.000000 0.000000 8.207798 -6.751707 -1.599555 -22.504812 4.075245 -4.782800 72.126279 -0.042053 6.100370 -21.311193 12.638754 0.879026 0.084389 -0.000002 0.000001 -0.000001 0.000000 0.000001 
